<svg xmlns="http://www.w3.org/2000/svg" viewBox="0 0 1200 675" width="1200" height="675">
  <defs>
    <linearGradient id="bg" x1="0%" y1="0%" x2="0%" y2="100%">
      <stop offset="0%" stop-color="#ffffff"/>
      <stop offset="100%" stop-color="#ecfdf5"/>
    </linearGradient>
    <pattern id="dots" x="0" y="0" width="32" height="32" patternUnits="userSpaceOnUse">
      <circle cx="3" cy="3" r="1.4" fill="#14532d" opacity="0.10"/>
    </pattern>
  </defs>
  <rect width="1200" height="675" fill="url(#bg)"/>
  <rect width="1200" height="675" fill="url(#dots)" opacity="0.5"/>
  <g transform="translate(72, 56)">
    <rect x="0" y="0" width="280" height="56" rx="12" fill="#14532d"/>
    <text x="20" y="40" font-family="'Apple Color Emoji','Segoe UI Emoji','Noto Color Emoji','Segoe UI Symbol',sans-serif" font-size="28" fill="#ffffff">💴</text>
    <text x="60" y="38" font-family="'-apple-system','BlinkMacSystemFont','Hiragino Kaku Gothic ProN','Hiragino Sans','Yu Gothic','Meiryo','Noto Sans CJK JP',sans-serif" font-size="32" font-weight="800" fill="#ffffff" letter-spacing="1">お金・税金</text>
  </g>
  <text x="72" y="212" font-family="'-apple-system','BlinkMacSystemFont','Hiragino Kaku Gothic ProN','Hiragino Sans','Yu Gothic','Meiryo','Noto Sans CJK JP',sans-serif" font-size="54" font-weight="800" fill="#14532d" letter-spacing="-1">だれが</text>
  <text x="66" y="338" font-family="'-apple-system','BlinkMacSystemFont','Hiragino Kaku Gothic ProN','Hiragino Sans','Yu Gothic','Meiryo','Noto Sans CJK JP',sans-serif" font-size="100" font-weight="900" fill="#16a34a" letter-spacing="-2">『消費税を納める？』</text>
  <rect x="76" y="452" width="644" height="26" fill="#fde047"/>
  <text x="76" y="460" font-family="'-apple-system','BlinkMacSystemFont','Hiragino Kaku Gothic ProN','Hiragino Sans','Yu Gothic','Meiryo','Noto Sans CJK JP',sans-serif" font-size="46" font-weight="700" fill="#14532d">納税義務者と課税期間のキホン</text>
  <g transform="translate(896, 96)">
    <rect x="0" y="0" width="256" height="176" rx="14" fill="#ffffff" stroke="#14532d" stroke-opacity="0.10" stroke-width="2"/>
    <text x="20" y="36" font-family="'-apple-system','BlinkMacSystemFont','Hiragino Kaku Gothic ProN','Hiragino Sans','Yu Gothic','Meiryo','Noto Sans CJK JP',sans-serif" font-size="28" font-weight="800" fill="#14532d">推移</text>
    <svg x="18" y="52" width="220" height="110" viewBox="0 0 60 30">
      <polyline points="2,24 12,20 22,22 32,14 42,10 52,4 58,2" fill="none" stroke="#16a34a" stroke-width="1.8" stroke-linecap="round" stroke-linejoin="round"/>
<circle cx="2" cy="24" r="1.6" fill="#16a34a"/>
<circle cx="22" cy="22" r="1.6" fill="#16a34a"/>
<circle cx="42" cy="10" r="1.6" fill="#16a34a"/>
<circle cx="58" cy="2" r="1.6" fill="#16a34a"/>
    </svg>
  </g>
  <g transform="translate(872, 459)">
    <rect x="0" y="0" width="240" height="160" rx="14" fill="#ffffff" stroke="#14532d" stroke-opacity="0.10" stroke-width="2"/>
    <text x="20" y="34" font-family="'-apple-system','BlinkMacSystemFont','Hiragino Kaku Gothic ProN','Hiragino Sans','Yu Gothic','Meiryo','Noto Sans CJK JP',sans-serif" font-size="26" font-weight="800" fill="#14532d">サマリー</text>
    <svg x="16" y="48" width="210" height="100" viewBox="0 0 60 30">
      <rect x="4"  y="18" width="6" height="10" rx="1" fill="#16a34a" opacity="0.4"/>
<rect x="14" y="12" width="6" height="16" rx="1" fill="#16a34a" opacity="0.55"/>
<rect x="24" y="8"  width="6" height="20" rx="1" fill="#16a34a" opacity="0.7"/>
<rect x="34" y="14" width="6" height="14" rx="1" fill="#16a34a" opacity="0.55"/>
<rect x="44" y="4"  width="6" height="24" rx="1" fill="#16a34a"/>
    </svg>
  </g>
</svg>